<svg xmlns="http://www.w3.org/2000/svg" xmlns:xlink="http://www.w3.org/1999/xlink"><symbol id="icon-instagram" viewBox="0 0 16 16"><path d="M4.773 1A3.781 3.781 0 0 0 1 4.773v5.457A3.78 3.78 0 0 0 4.773 14h5.457A3.78 3.78 0 0 0 14 10.227V4.773A3.781 3.781 0 0 0 10.227 1zm0 1h5.454A2.764 2.764 0 0 1 13 4.773v5.454A2.763 2.763 0 0 1 10.23 13H4.773A2.763 2.763 0 0 1 2 10.23V4.773A2.764 2.764 0 0 1 4.773 2zM11.5 3c-.277 0-.5.223-.5.5s.223.5.5.5.5-.223.5-.5-.223-.5-.5-.5zm-4 1A3.51 3.51 0 0 0 4 7.5 3.51 3.51 0 0 0 7.5 11 3.51 3.51 0 0 0 11 7.5 3.51 3.51 0 0 0 7.5 4zm0 1C8.887 5 10 6.113 10 7.5S8.887 10 7.5 10A2.492 2.492 0 0 1 5 7.5C5 6.113 6.113 5 7.5 5z"/></symbol><symbol id="icon-twitter" viewBox="0 0 50 50"><path d="M34.219 5.469c-5.98 0-10.844 4.863-10.844 10.843 0 .36.09.711.125 1.063-7.395-.707-13.934-4.27-18.375-9.719a1.005 1.005 0 0 0-.863-.379.995.995 0 0 0-.793.504A10.758 10.758 0 0 0 2 13.22c0 2.402.86 4.601 2.188 6.406-.258-.113-.54-.176-.782-.313a.997.997 0 0 0-1.469.875v.125c0 3.684 1.907 6.883 4.72 8.844-.032-.004-.063.008-.095 0a1 1 0 0 0-1.125 1.282c1.118 3.472 3.97 6.125 7.5 7.093-2.812 1.672-6.074 2.657-9.593 2.657-.762 0-1.492-.04-2.219-.126a.998.998 0 0 0-1.074.657.997.997 0 0 0 .418 1.187A28.84 28.84 0 0 0 16.094 46.5c9.332 0 16.652-3.898 21.562-9.469 4.91-5.57 7.469-12.804 7.469-19.562 0-.285-.023-.563-.031-.844 1.832-1.402 3.468-3.047 4.75-4.969a.998.998 0 0 0-.067-1.21.996.996 0 0 0-1.183-.258c-.516.23-1.117.253-1.657.437.711-.95 1.32-1.973 1.688-3.125a1.005 1.005 0 0 0-.336-1.086 1.002 1.002 0 0 0-1.133-.07C45.45 7.355 43.56 8.066 41.563 8.5c-1.938-1.813-4.489-3.031-7.344-3.031zm0 2c2.55 0 4.855 1.09 6.468 2.812.243.25.598.356.938.281a20.581 20.581 0 0 0 3.75-1.124 8.903 8.903 0 0 1-2.563 2.343.998.998 0 0 0-.503 1.23.998.998 0 0 0 1.16.645c1-.12 1.89-.527 2.843-.781a18.992 18.992 0 0 1-2.812 2.5.997.997 0 0 0-.406.875c.015.406.031.809.031 1.219 0 6.25-2.398 13.035-6.969 18.218-4.57 5.184-11.281 8.813-20.062 8.813-3.989 0-7.754-.883-11.157-2.438 4.22-.324 8.11-1.816 11.25-4.28A.999.999 0 1 0 15.594 36c-3.296-.06-6.058-1.978-7.53-4.688h.156c.988 0 1.965-.125 2.875-.375.437-.13.738-.536.722-.993a1.004 1.004 0 0 0-.785-.945c-3.558-.719-6.226-3.617-6.844-7.219 1.008.348 2.04.621 3.157.657a1 1 0 0 0 .593-1.844A8.855 8.855 0 0 1 4 13.219c0-1.14.297-2.188.688-3.188 5 5.489 12 9.133 19.906 9.531.312.016.617-.113.82-.351a1 1 0 0 0 .211-.867 8.925 8.925 0 0 1-.25-2.032 8.826 8.826 0 0 1 8.844-8.843z"/></symbol><symbol id="icon-vk" viewBox="0 0 16 16"><path d="M7.695 3.02c-.828-.008-1.453.03-1.976.3-.215.11-.367.25-.485.414-.062.082-.12.157-.148.329a.517.517 0 0 0 .059.367c.085.152.27.254.394.273.094.012.293.094.328.14a.782.782 0 0 1 .125.25c.012.048.008.016.008.016v.047s.031.492.012 1c-.012.25-.035.512-.074.688-.04.176-.137.218.003.136-.097.06-.062.082-.183.02-.125-.059-.45-.332-.875-1.098-.426-.77-.735-1.168-.805-1.254-.027-.078-.094-.238-.32-.414-.293-.226-.594-.23-.594-.23L3.137 4H.953s-.125.004-.27.035c-.144.031-.351.067-.546.309H.133c-.2.254-.164.484-.149.625.02.144.063.258.063.258l.008.023.011.023S1.734 8.832 3.726 11c1.872 2.04 4.04 2 4.04 2h1.23l.027-.004s.395.02.727-.351a.914.914 0 0 0 .227-.504c.023-.137.023-.246.023-.246v.03s.016-.257.086-.527c.035-.132.086-.265.133-.34.023-.042.023-.03.031-.042.086.062.227.207.375.39.305.364.648.867 1.129 1.215.348.246.676.356.926.395.168.027.289.023.37.015l1.7-.031h.016s.351-.008.703-.23a.988.988 0 0 0 .437-.594c.07-.285-.008-.594-.172-.88.055.099-.011-.03-.062-.132a3.596 3.596 0 0 0-.246-.41c-.227-.336-.602-.809-1.223-1.41-.293-.281-.48-.438-.598-.547.036-.05.04-.055.172-.211.211-.246.52-.61.91-1.152.47-.657.81-1.192 1.028-1.637.219-.442.394-.809.2-1.262-.106-.246-.294-.34-.43-.398a1.647 1.647 0 0 0-.383-.102C14.872 4 14.668 4 14.668 4l-1.98.016c-.06-.012-.286-.055-.579.132-.289.18-.355.372-.37.43-.048.067-.376.531-.833 1.344-.46.82-.773 1.043-.812 1.062-.012-.011.011-.007-.043-.039-.024-.02-.047-.035-.067-.246-.015-.21.004-.543.004-.933 0-.84.075-1.278.032-1.696-.02-.21-.106-.468-.293-.64-.188-.168-.391-.23-.602-.285-.332-.083-.781-.118-1.43-.125zm-.008 1c.606.007 1.032.054 1.188.093.133.035.152.051.148.043v.016c.016.168-.035.707-.035 1.594 0 .347-.027.683 0 1.02.028.335.149.745.504.987h.004c-.043-.027.45.34.918.172.469-.172.84-.601 1.367-1.535.461-.828.801-1.293.801-1.293l.031-.047.024-.047s-.008-.003 0-.007L14.668 5s.14 0 .277.023h.012c-.02.008-.004.059-.14.336-.176.356-.493.864-.942 1.493-.371.511-.648.843-.855 1.085-.207.239-.364.352-.465.665a.78.78 0 0 0 .035.53c.07.15.156.231.242.313.172.164.375.325.672.617.582.563.91.977 1.094 1.25.093.141.148.239.183.31.035.07.012.042.09.175.066.121.055.137.055.129-.067.039-.235.074-.239.074l-1.699.031-.047.012s.004.004-.101-.012a1.202 1.202 0 0 1-.5-.222c-.27-.192-.61-.637-.945-1.043a3.15 3.15 0 0 0-.543-.551c-.211-.156-.543-.3-.883-.188-.293.094-.485.309-.606.508a2.5 2.5 0 0 0-.246.606c-.101.386-.117.734-.117.734v.031s0 .024-.008.059c-.02.008-.047.027-.062.035H7.734s-1.652.086-3.273-1.672C2.727 8.434 1.184 5.266 1.055 5h2.011l.082.031c-.046-.039.024.047.024.047l.031.074.055.063s.308.375.75 1.172c.472.855.87 1.3 1.316 1.515.446.215.914.063 1.114-.05.37-.215.414-.516.476-.793.063-.278.082-.575.094-.864C7.03 5.641 7 5.168 7 5.133c-.004-.012-.004-.149-.043-.297a1.846 1.846 0 0 0-.27-.563c-.062-.085-.12-.043-.187-.105.277-.078.574-.156 1.188-.148z"/></symbol></svg>