<svg
 xmlns="http://www.w3.org/2000/svg"
 xmlns:xlink="http://www.w3.org/1999/xlink"
 width="33px" height="32px">
<defs>
<filter id="Filter_0">
    <feFlood flood-color="rgb(245, 0, 73)" flood-opacity="1" result="floodOut" />
    <feComposite operator="atop" in="floodOut" in2="SourceGraphic" result="compOut" />
    <feBlend mode="normal" in="compOut" in2="SourceGraphic" />
</filter>

</defs>
<g filter="url(#Filter_0)">
<path fill-rule="evenodd"  fill="rgb(0, 0, 0)"
 d="M31.239,14.755 L30.433,14.755 L30.433,30.275 C30.433,31.226 29.643,32.000 28.673,32.000 L4.327,32.000 C3.356,32.000 2.567,31.226 2.567,30.275 L2.567,14.755 L1.761,14.755 C0.790,14.755 -0.000,13.981 -0.000,13.030 L-0.000,8.936 C-0.000,7.985 0.790,7.211 1.761,7.211 L6.338,7.211 C5.591,6.417 5.133,5.357 5.133,4.195 C5.133,4.195 5.134,4.017 5.136,3.967 C5.185,2.532 5.984,1.253 7.272,0.544 C8.586,-0.179 10.151,-0.179 11.459,0.545 L13.541,1.696 C14.845,2.417 15.865,3.504 16.500,4.781 C17.135,3.504 18.155,2.417 19.459,1.696 L21.541,0.545 C22.849,-0.179 24.414,-0.179 25.728,0.544 C27.016,1.253 27.815,2.532 27.864,3.967 C27.866,4.017 27.867,4.195 27.867,4.195 C27.867,5.358 27.409,6.417 26.662,7.211 L31.239,7.211 C32.210,7.211 33.000,7.985 33.000,8.936 L33.000,13.030 C33.000,13.981 32.210,14.755 31.239,14.755 ZM19.800,16.941 L22.594,16.941 C22.999,16.941 23.328,17.263 23.328,17.660 C23.328,18.057 22.999,18.378 22.594,18.378 L19.800,18.378 L19.800,30.563 L28.673,30.563 C28.835,30.563 28.967,30.434 28.967,30.275 L28.967,30.275 L28.967,14.755 L19.800,14.755 L19.800,16.941 ZM4.033,30.275 C4.033,30.434 4.165,30.563 4.327,30.563 L13.200,30.563 L13.200,18.378 L10.181,18.378 C9.776,18.378 9.448,18.057 9.448,17.660 C9.448,17.263 9.776,16.941 10.181,16.941 L13.200,16.941 L13.200,14.755 L4.033,14.755 L4.033,30.275 ZM1.761,8.648 C1.599,8.648 1.467,8.777 1.467,8.936 L1.467,13.030 C1.467,13.189 1.598,13.318 1.761,13.318 L13.200,13.318 L13.200,8.648 L1.761,8.648 ZM12.820,2.947 L10.738,1.796 C10.310,1.559 9.839,1.441 9.367,1.441 C8.895,1.441 8.422,1.559 7.990,1.797 C7.153,2.258 6.634,3.087 6.602,4.015 C6.601,4.050 6.600,4.195 6.600,4.195 C6.600,5.858 7.981,7.211 9.678,7.211 L15.725,7.211 C15.505,5.433 14.434,3.840 12.820,2.947 ZM14.667,8.648 L14.667,30.563 L18.333,30.563 L18.333,8.648 L14.667,8.648 ZM26.398,4.015 C26.366,3.087 25.847,2.258 25.010,1.797 C24.147,1.322 23.119,1.322 22.262,1.796 L20.180,2.947 C18.566,3.840 17.495,5.433 17.275,7.211 L23.322,7.211 C25.019,7.211 26.400,5.858 26.400,4.195 C26.400,4.195 26.399,4.050 26.398,4.015 ZM31.533,8.936 C31.533,8.777 31.402,8.648 31.239,8.648 L19.800,8.648 L19.800,13.318 L31.239,13.318 C31.401,13.318 31.533,13.189 31.533,13.030 L31.533,13.030 L31.533,8.936 ZM6.698,18.378 L6.624,18.378 C6.219,18.378 5.891,18.057 5.891,17.660 C5.891,17.263 6.219,16.941 6.624,16.941 L6.698,16.941 C7.103,16.941 7.431,17.263 7.431,17.660 C7.431,18.057 7.103,18.378 6.698,18.378 ZM26.151,18.378 L26.078,18.378 C25.673,18.378 25.344,18.057 25.344,17.660 C25.344,17.263 25.673,16.941 26.078,16.941 L26.151,16.941 C26.556,16.941 26.884,17.263 26.884,17.660 C26.884,18.057 26.556,18.378 26.151,18.378 Z"/>
</g>
</svg>
