<?xml version="1.0" encoding="utf-8"?>
<!-- Generator: Adobe Illustrator 21.1.0, SVG Export Plug-In . SVG Version: 6.00 Build 0)  -->
<svg version="1.1" id="Layer_1" xmlns="http://www.w3.org/2000/svg" xmlns:xlink="http://www.w3.org/1999/xlink" x="0px" y="0px"
	 viewBox="0 0 512 512" style="enable-background:new 0 0 512 512;" xml:space="preserve">
<style type="text/css">
	.st0{stroke:#000000;stroke-width:8;stroke-miterlimit:10;}
</style>
<g>
	<g>
		<path class="st0" d="M489.2,385.6c-11.1-13.3-23.7-25.3-35.9-36.8c-4.3-4.1-8.7-8.2-13-12.4l0,0c-5.7-5.6-8.5-9.6-8.8-12.5
			s1.7-7.2,6.2-13.5c6.8-9.5,14-19,21-28.2c6.2-8.2,12.6-16.6,18.8-25.1l1.4-1.9c12-16.6,24.4-33.8,31-54.7c1.9-6,3.9-14.9-0.9-22.7
			c-4.8-7.8-13.6-10.1-19.8-11.2c-3-0.5-5.9-0.6-8.6-0.6l-77.8-0.1c-13.5-0.2-22.8,6.2-27.9,19c-4.1,10.2-8.9,22.1-14.4,33.3
			c-10.7,21.7-24.2,46.7-43.8,67.5l-0.9,0.9c-1.3,1.4-3.5,3.8-4.6,4.3c-2.1-1.3-4.6-9-4.5-13c0-0.1,0-0.2,0-0.3l-0.1-89.9
			c0-0.5,0-0.9-0.1-1.4c-1.7-12.8-5.1-25.7-25.4-29.7c-0.7-0.1-1.3-0.2-2-0.2h-80.9c-15.2,0-23.3,7-29.7,14.5
			c-1.9,2.2-6.8,8.1-4.3,15.2c2.6,7.2,10.2,8.7,12.7,9.2c8.8,1.7,13.4,6.7,14.8,16.2c2.8,18.5,3.1,38.3,1.1,62.3
			c-0.6,6.4-1.6,11.3-3.4,15.4c-0.5,1.1-0.9,1.8-1.2,2.2c-0.5-0.2-1.2-0.5-2.2-1.2c-6.2-4.2-10.9-10.8-15.4-17.2
			c-18-25.5-33.2-53.6-46.4-86c-5.4-13.3-15.6-20.7-28.7-20.9c-24.9-0.4-48-0.4-70.5,0c-10.6,0.2-18,3.5-22.1,9.9
			s-3.9,14.6,0.4,24.3c31.2,69.4,59.5,119.8,91.8,163.6c22.8,30.8,45.7,52.2,72.1,67.4c27.8,15.9,59.1,23.7,95.4,23.7
			c4.1,0,8.3-0.1,12.6-0.3c22.4-1,31.5-9.9,32.5-31.8c0.6-11.5,1.8-20.9,6.3-29c1.2-2.3,2.7-3.8,3.8-4.1c1.2-0.3,3.3,0.4,5.6,1.9
			c4.2,2.8,7.9,6.5,10.9,9.8s6.1,6.8,9.1,10.1c6.3,7.1,12.9,14.4,19.8,21.4c15.5,15.8,33.5,23.1,53.3,21.6h71.2l0,0
			c0.2,0,0.5,0,0.7,0c8.2-0.5,15.3-5.1,19.5-12.5c5-8.9,4.9-20.2-0.2-30.1C502.4,401.9,495.4,393,489.2,385.6z M490.2,432.4
			c-1,1.7-2.2,2.1-2.8,2.1h-71.2l0,0c-0.3,0-0.6,0-0.8,0c-14,1.2-25.9-3.8-37.5-15.5c-6.5-6.7-12.9-13.8-19.1-20.7
			c-3-3.4-6.1-6.9-9.3-10.3c-3.9-4.2-8.7-9.1-14.9-13.1c-9.2-6-16.9-5.8-21.7-4.6c-4.7,1.2-11.5,4.6-16.7,14
			c-6.7,12.2-8.2,25.4-8.8,37.9c-0.3,7.6-1.6,9.6-2.2,10.1c-0.7,0.7-3.1,1.8-10.9,2.2c-37.8,1.8-69.5-5-96.9-20.7
			c-23.9-13.7-44.8-33.3-65.8-61.8c-31.4-42.5-59-91.8-89.6-159.8c-1.1-2.5-1.5-4-1.5-4.8c0.8-0.3,2.3-0.6,5-0.6
			c22.2-0.4,45.1-0.4,69.8,0c3.4,0.1,7.2,1.1,10.1,8.2c13.8,33.9,29.7,63.3,48.6,90.1c5,7.1,11.3,15.9,20.5,22.2
			c8.4,5.8,15.3,5.5,19.5,4.3c4.3-1.2,10.2-4.7,14.2-14.1c2.6-6.1,4.1-12.9,4.9-21.6c2.2-25.7,1.8-47-1.2-67.1
			c-2.1-14.4-9.6-24.8-21.3-30.1c2.1-1.1,4.4-1.5,7.7-1.5h79.9c4.5,1,5.4,2.2,5.7,2.6c1.3,1.7,2,5.8,2.5,9l0.1,89.1
			c-0.2,8.5,4,27.5,18.1,32.7c0.1,0,0.2,0.1,0.4,0.1c12.9,4.2,21.4-4.9,25.9-9.8l0.8-0.9c21.5-22.8,36-49.5,47.3-72.5
			c5.9-11.9,10.9-24.2,15.1-34.8c2.1-5.3,4-6.2,8.6-6.1c0.1,0,0.1,0,0.2,0l77.9,0.1c1.8,0,3.7,0,5.2,0.3c3.7,0.6,5.2,1.4,5.7,1.7
			c0.1,0.6,0,2.3-1.1,5.8c-5.7,17.8-16.6,32.9-28.1,48.9l-1.4,1.9c-6,8.3-12.4,16.7-18.5,24.8c-7.1,9.3-14.4,19-21.3,28.7
			c-14.8,20.7-13.5,34.4,5,52.4c4.4,4.3,8.8,8.5,13.2,12.6c12.3,11.6,23.9,22.6,34.2,35c5.4,6.5,11.6,14.4,16,23
			C492,426.2,491.4,430.3,490.2,432.4z"/>
	</g>
</g>
</svg>
