<svg 
 xmlns="http://www.w3.org/2000/svg"
 xmlns:xlink="http://www.w3.org/1999/xlink"
 width="55px" height="55px">
<defs>
<filter id="Filter_0">
    <feFlood flood-color="rgb(245, 0, 73)" flood-opacity="1" result="floodOut" />
    <feComposite operator="atop" in="floodOut" in2="SourceGraphic" result="compOut" />
    <feBlend mode="normal" in="compOut" in2="SourceGraphic" />
</filter>

</defs>
<g filter="url(#Filter_0)">
<path fill-rule="evenodd"  fill="rgb(0, 0, 0)"
 d="M52.066,25.883 L50.722,25.883 L50.722,52.088 C50.722,53.694 49.406,55.000 47.788,55.000 L7.212,55.000 C5.594,55.000 4.278,53.694 4.278,52.088 L4.278,25.883 L2.934,25.883 C1.316,25.883 0.000,24.576 0.000,22.970 L0.000,16.057 C0.000,14.451 1.316,13.144 2.934,13.144 L10.564,13.144 C9.318,11.804 8.556,10.015 8.556,8.052 C8.556,8.052 8.557,7.752 8.560,7.667 C8.642,5.244 9.973,3.084 12.120,1.887 C14.310,0.667 16.919,0.667 19.099,1.889 L22.568,3.833 C24.741,5.050 26.442,6.885 27.500,9.042 C28.558,6.885 30.259,5.050 32.432,3.833 L35.901,1.889 C38.081,0.667 40.690,0.667 42.880,1.888 C45.027,3.084 46.358,5.244 46.440,7.667 C46.443,7.752 46.444,8.052 46.444,8.052 C46.444,10.015 45.682,11.804 44.436,13.144 L52.066,13.144 C53.684,13.144 55.000,14.451 55.000,16.057 L55.000,22.970 C55.000,24.576 53.684,25.883 52.066,25.883 ZM33.000,29.573 L37.657,29.573 C38.332,29.573 38.879,30.117 38.879,30.787 C38.879,31.457 38.332,32.000 37.657,32.000 L33.000,32.000 L33.000,52.574 L47.788,52.574 C48.058,52.574 48.278,52.356 48.278,52.088 L48.278,52.088 L48.278,25.883 L33.000,25.883 L33.000,29.573 ZM6.722,52.088 C6.722,52.356 6.942,52.574 7.212,52.574 L22.000,52.574 L22.000,32.000 L16.968,32.000 C16.293,32.000 15.746,31.457 15.746,30.787 C15.746,30.117 16.293,29.574 16.968,29.574 L22.000,29.574 L22.000,25.883 L6.722,25.883 L6.722,52.088 ZM2.934,15.571 C2.664,15.571 2.444,15.789 2.444,16.057 L2.444,22.970 C2.444,23.239 2.664,23.456 2.934,23.456 L22.000,23.456 L22.000,15.571 L2.934,15.571 ZM21.367,5.945 L17.897,4.002 C17.183,3.601 16.398,3.402 15.612,3.402 C14.824,3.402 14.036,3.602 13.316,4.003 C11.921,4.781 11.056,6.181 11.003,7.749 C11.001,7.807 11.000,8.052 11.000,8.052 C11.000,10.860 13.301,13.144 16.130,13.144 L26.208,13.144 C25.841,10.143 24.056,7.452 21.367,5.945 ZM24.445,15.570 L24.445,52.574 L30.555,52.574 L30.555,15.570 L24.445,15.570 ZM43.997,7.749 C43.944,6.181 43.079,4.781 41.683,4.003 C40.245,3.202 38.532,3.201 37.103,4.002 L33.633,5.945 C30.943,7.452 29.158,10.143 28.792,13.144 L38.870,13.144 C41.698,13.144 44.000,10.860 44.000,8.052 C44.000,8.052 43.999,7.807 43.997,7.749 ZM52.556,16.057 C52.556,15.789 52.336,15.571 52.066,15.571 L33.000,15.571 L33.000,23.456 L52.066,23.456 C52.336,23.456 52.556,23.239 52.556,22.970 L52.556,22.970 L52.556,16.057 ZM11.163,32.000 L11.041,32.000 C10.366,32.000 9.818,31.457 9.818,30.787 C9.818,30.117 10.366,29.573 11.041,29.573 L11.163,29.573 C11.838,29.573 12.385,30.117 12.385,30.787 C12.385,31.457 11.838,32.000 11.163,32.000 ZM43.585,32.000 L43.463,32.000 C42.788,32.000 42.241,31.457 42.240,30.787 C42.240,30.117 42.788,29.573 43.463,29.573 L43.585,29.573 C44.260,29.573 44.807,30.117 44.807,30.787 C44.807,31.457 44.260,32.000 43.585,32.000 Z"/>
</g>
</svg>